<svg width="6" height="7" viewBox="0 0 6 7" fill="none" xmlns="http://www.w3.org/2000/svg">
<path d="M5.09286 6.15056H0.990589V5.26704H5.09286V6.15056ZM3.93377 3.85226H0.970703V2.99147H3.93377V3.85226ZM2.58718 2.01704L2.67809 4.45169C2.68945 4.70359 2.64779 4.92139 2.55309 5.1051C2.46029 5.28692 2.29646 5.43654 2.06161 5.55397L1.31161 5.26704C1.40442 5.25378 1.47544 5.20548 1.52468 5.12215C1.57392 5.03882 1.60707 4.94033 1.62411 4.82669C1.64116 4.71116 1.64779 4.60132 1.644 4.49715L1.55877 2.01704C1.54551 1.63257 1.61843 1.30965 1.77752 1.04829C1.93851 0.785028 2.15726 0.587111 2.43377 0.454535C2.71029 0.320066 3.01616 0.252831 3.35139 0.252831C3.63926 0.252831 3.89684 0.296392 4.12411 0.383513C4.35328 0.470634 4.54551 0.591846 4.70082 0.747149C4.85801 0.902452 4.9726 1.08238 5.04457 1.28692C5.11843 1.49147 5.1421 1.71211 5.11559 1.94885L4.12979 1.86647C4.14305 1.69412 4.11464 1.55302 4.04457 1.44317C3.97639 1.33143 3.88169 1.24999 3.76048 1.19885C3.64116 1.14582 3.51332 1.11931 3.37695 1.11931C3.2368 1.11931 3.10612 1.15151 2.98491 1.2159C2.86559 1.28029 2.769 1.37878 2.69514 1.51135C2.62317 1.64393 2.58718 1.81249 2.58718 2.01704Z" fill="black"/>
</svg>
